<svg width="192" height="502" fill="none" xmlns="http://www.w3.org/2000/svg"><path d="M26 502h140a26.031 26.031 0 0026-26V124a42.049 42.049 0 00-40-41.949V64h4a6.002 6.002 0 006-6V26a26.031 26.031 0 00-26-26H56a26.03 26.03 0 00-26 26v32a6 6 0 006 6h4v18.051A42.05 42.05 0 000 124v352a26.03 26.03 0 0026 26zM42 26a14.015 14.015 0 0114-14h80a14.015 14.015 0 0114 14v26H42V26zm98 38v18H52V64h88zM12 124a30.033 30.033 0 0130-30h108a30.032 30.032 0 0130 30v89.476H91.608a6 6 0 00-6 6v27.332a6.002 6.002 0 006 6 6 6 0 006-6v-21.332H180v148.24H97.608v-76.908a6.002 6.002 0 00-6-6 6 6 0 00-6 6v82.908a6.002 6.002 0 006 6H180V476a14.014 14.014 0 01-14 14H26a14.014 14.014 0 01-14-14V124z" fill="#284268"/><path d="M36 148a6 6 0 006-6v-2a6.002 6.002 0 00-6-6 6 6 0 00-6 6v2a6.002 6.002 0 006 6zM36 266a6 6 0 006-6v-92a6.002 6.002 0 00-6-6 6 6 0 00-6 6v92a6.002 6.002 0 006 6z" fill="#284268"/></svg>